<?xml version="1.0" standalone="no"?>
<svg version="1.0" xmlns="http://www.w3.org/2000/svg"
 width="256.000000pt" height="256.000000pt" viewBox="0 0 256.000000 256.000000"
 preserveAspectRatio="xMidYMid meet">

  <g transform="translate(0.000000,256.000000) scale(0.100000,-0.100000)"
  fill="#000000" stroke="none">
    <path d="M2054 2150 c-35 -14 -54 -50 -54 -101 l0 -47 -172 -4 c-164 -3 -176
-5 -233 -31 -32 -15 -74 -39 -92 -53 -18 -13 -237 -276 -487 -582 -354 -434
-464 -563 -498 -582 -38 -22 -58 -25 -181 -30 -131 -5 -140 -6 -158 -29 -27
-33 -24 -77 7 -108 25 -25 26 -25 172 -21 135 3 152 6 207 31 32 15 74 39 92
53 18 13 237 276 487 582 351 431 464 563 498 582 40 23 55 25 201 28 l157 4
0 -55 c0 -64 19 -94 65 -103 26 -5 50 7 173 88 211 139 212 158 19 285 -167
111 -164 109 -203 93z"/>
    <path d="M186 1977 c-34 -34 -34 -80 -1 -112 23 -24 30 -25 143 -25 186 0 201
-9 363 -208 61 -75 122 -147 136 -159 34 -32 85 -31 112 3 40 50 31 69 -114
247 -147 180 -170 202 -260 244 -55 25 -72 28 -207 31 -146 4 -147 4 -172 -21z"/>
    <path d="M1221 1084 c-24 -30 -26 -55 -10 -87 22 -40 260 -327 293 -352 17
-13 59 -37 91 -52 57 -26 69 -28 233 -31 l172 -4 0 -53 c0 -62 20 -92 65 -101
26 -5 50 7 173 88 214 140 214 156 4 296 -75 51 -145 92 -155 92 -23 0 -58
-19 -74 -39 -7 -9 -13 -40 -13 -69 l0 -54 -157 4 c-209 4 -205 2 -383 218
-132 160 -138 165 -177 168 -34 3 -44 -1 -62 -24z"/>
  </g>
</svg>
  